<?xml version="1.0" encoding="UTF-8"?><svg xmlns="http://www.w3.org/2000/svg" xmlns:xlink="http://www.w3.org/1999/xlink" height="334.2" preserveAspectRatio="xMidYMid meet" version="1.0" viewBox="-3.1 -5.0 488.5 334.2" width="488.5" zoomAndPan="magnify"><defs><clipPath id="a"><path d="M 64 170 L 174 170 L 174 329.210938 L 64 329.210938 Z M 64 170"/></clipPath><clipPath id="b"><path d="M 142 162 L 301 162 L 301 329.210938 L 142 329.210938 Z M 142 162"/></clipPath><clipPath id="c"><path d="M 285 103 L 485.351562 103 L 485.351562 329.210938 L 285 329.210938 Z M 285 103"/></clipPath><clipPath id="d"><path d="M 1 183 L 113 183 L 113 329.210938 L 1 329.210938 Z M 1 183"/></clipPath><clipPath id="e"><path d="M 256 293 L 280 293 L 280 329.210938 L 256 329.210938 Z M 256 293"/></clipPath></defs><g><g clip-path="url(#a)" id="change1_5"><path d="M 67.957031 196.066406 C 67.957031 196.066406 82.804688 169.539062 94.476562 170.070312 C 106.144531 170.601562 168.734375 210.914062 168.734375 210.914062 C 168.734375 210.914062 175.097656 256.527344 172.445312 269.257812 C 169.792969 281.988281 154.921875 306.917969 154.136719 310.097656 C 153.351562 313.28125 149.640625 323.921875 150.699219 329.210938 C 122.597656 329.210938 64.242188 329.210938 64.242188 329.210938 L 67.957031 196.066406" fill="#f794b9"/></g><g clip-path="url(#b)" id="change1_4"><path d="M 280.648438 329.207031 L 142.742188 329.207031 L 154.136719 183.914062 C 154.136719 183.914062 182.773438 163.617188 201.574219 162.308594 C 220.378906 161.003906 294.527344 168.660156 294.527344 168.660156 L 300.804688 279.867188 L 292.167969 284.640625 C 292.167969 284.640625 280.121094 323.921875 280.648438 329.207031" fill="#f794b9"/></g><g id="change1_1"><path d="M 78.5625 121.945312 C 78.5625 121.945312 60.53125 110.664062 36.660156 110.664062 C 12.792969 110.664062 9.078125 111.335938 7.488281 116.304688 C 5.898438 121.273438 -3.117188 135.59375 1.125 139.835938 C 5.367188 144.082031 12.792969 160.914062 14.914062 162.308594 C 17.035156 163.707031 22.808594 177.71875 39.28125 177.605469 C 55.757812 177.496094 68.570312 176.433594 68.570312 176.433594 L 78.5625 121.945312" fill="#f794b9"/></g><g id="change1_2"><path d="M 385.535156 94.328125 C 385.535156 94.328125 400.523438 81.492188 410.601562 83.613281 C 420.679688 85.734375 420.148438 88.085938 427.574219 88.503906 C 435 88.917969 438.710938 96.34375 439.242188 98.996094 C 439.773438 101.648438 442.957031 111.726562 439.242188 115.96875 C 435.53125 120.210938 386.992188 125.195312 385.535156 94.328125" fill="#f794b9"/></g><g clip-path="url(#c)" id="change1_3"><path d="M 303.457031 329.207031 C 303.457031 329.207031 309.292969 318.054688 309.292969 312.21875 C 309.292969 306.386719 307.171875 300.550781 305.578125 300.019531 C 303.988281 299.492188 289.136719 281.988281 286.484375 270.316406 C 283.832031 258.648438 288.960938 202.957031 288.960938 202.957031 C 288.960938 202.957031 318.839844 149.914062 320.960938 144.609375 C 323.082031 139.308594 317.777344 118.089844 327.324219 115.96875 C 336.875 113.847656 409.539062 90.820312 438.183594 114.003906 C 466.824219 137.183594 458.335938 139.839844 463.640625 154.6875 C 468.945312 169.539062 471.738281 197.121094 469.546875 203.488281 C 467.355469 209.851562 471.597656 229.476562 473.1875 240.613281 C 474.78125 251.753906 488.039062 315.433594 484.859375 329.207031 C 440.835938 329.207031 303.457031 329.207031 303.457031 329.207031" fill="#f794b9"/></g><g id="change2_1"><path d="M 139.03125 206.667969 C 134.257812 188.105469 98.1875 177.605469 98.1875 177.605469 C 98.1875 177.605469 54.164062 184.390625 11.730469 309.039062 C -1.527344 296.839844 17.566406 262.011719 17.566406 262.011719 C 17.566406 262.011719 15.976562 268.195312 1.125 266.074219 C 10.671875 260.242188 26.050781 238.492188 20.21875 237.964844 C 14.382812 237.433594 11.730469 252.285156 11.730469 248.570312 C 11.730469 244.859375 13.324219 239.554688 18.097656 233.1875 C 22.871094 226.824219 24.460938 223.640625 24.992188 213.5625 C 25.523438 203.488281 43.554688 183.914062 43.554688 183.914062 C 43.554688 183.914062 38.78125 188.636719 37.722656 183.914062 C 47.269531 182.378906 57.347656 170.601562 57.347656 170.601562 C 57.347656 170.601562 78.03125 139.308594 70.078125 130.117188 C 62.121094 120.925781 62.121094 102.710938 66.363281 91.570312 C 70.605469 80.429688 81.214844 65.578125 91.824219 52.320312 C 102.433594 39.058594 118.597656 38.527344 118.597656 38.527344 C 118.597656 38.527344 131.074219 34.285156 145.394531 38.527344 C 159.714844 42.773438 183.054688 62.398438 186.238281 78.308594 C 189.417969 94.222656 194.703125 131.351562 192.855469 148.324219 C 191.011719 165.296875 188.359375 175.375 189.949219 190.226562 C 191.539062 205.078125 193.347656 213.5625 193.238281 222.582031 C 193.132812 231.597656 183.054688 241.144531 183.054688 253.34375 C 183.054688 265.546875 188.890625 281.988281 185.175781 291.535156 C 186.25 279.753906 177.75 276.683594 177.75 276.683594 C 177.75 276.683594 183.78125 294.71875 174.664062 305.324219 C 165.550781 315.933594 168.734375 324.421875 168.734375 324.421875 C 168.734375 324.421875 159.1875 323.359375 157.0625 307.445312 C 154.941406 291.535156 144.335938 290.304688 151.230469 262.011719 C 158.125 233.71875 139.03125 206.667969 139.03125 206.667969" fill="#1b3a5d"/></g><g id="change2_2"><path d="M 229.199219 21.023438 C 229.199219 21.023438 205.332031 19.433594 201.089844 25.269531 C 196.84375 31.101562 180.351562 59.0625 183.832031 71.554688 C 187.308594 84.050781 188.890625 125.40625 188.890625 125.40625 C 188.890625 125.40625 197.90625 136.65625 201.089844 147.261719 C 204.269531 157.871094 201.089844 163.175781 198.4375 173.785156 C 195.785156 184.390625 200.027344 202.957031 203.210938 206.136719 C 206.394531 209.320312 199.265625 190.992188 206.277344 180.53125 C 213.289062 170.070312 233.441406 164.765625 233.441406 164.765625 C 233.441406 164.765625 239.808594 206.667969 249.355469 215.6875 C 251.476562 203.488281 256.359375 188.105469 256.359375 188.105469 C 256.359375 188.105469 279.691406 123.878906 276.457031 102.152344 C 273.222656 80.429688 286.484375 9.886719 229.199219 21.023438" fill="#1b3a5d"/></g><g id="change2_3"><path d="M 259.964844 59.425781 C 259.964844 59.425781 256.25 26.082031 264.207031 19.839844 C 272.164062 13.597656 276.765625 12.484375 276.765625 12.484375 C 276.765625 12.484375 289.667969 -4.964844 303.988281 1.398438 C 318.308594 7.765625 329.976562 15.191406 334.75 17.3125 C 339.527344 19.433594 359.152344 33.753906 361.273438 47.546875 C 363.394531 61.335938 372.402344 81.746094 368.695312 88.78125 C 364.984375 95.8125 332.5625 125.40625 332.5625 125.40625 C 332.5625 125.40625 336.875 131.882812 335.8125 140.898438 C 334.75 149.914062 329.449219 173.785156 342.175781 173.253906 C 354.90625 172.722656 359.152344 166.359375 359.152344 166.359375 C 359.152344 166.359375 355.257812 183.96875 344.476562 183.914062 C 333.691406 183.859375 321.441406 209.242188 308.761719 184.84375 C 284.363281 186.964844 271.632812 168.40625 271.632812 168.40625 L 265.796875 80.960938 L 259.964844 59.425781" fill="#1b3a5d"/></g><g id="change3_1"><path d="M 246.125 72.832031 C 257.90625 94.054688 239.125 140.722656 239.125 140.722656 C 230.285156 166.183594 240.164062 195.535156 240.164062 195.535156 C 203.386719 191.644531 210.875 164.0625 210.875 164.0625 C 210.875 164.0625 221.066406 161.585938 225.3125 158.40625 C 229.554688 155.222656 228.847656 137.1875 228.847656 137.1875 C 228.847656 137.1875 213.996094 130.824219 210.105469 126.226562 C 206.214844 121.628906 198.4375 105.363281 195.253906 99.351562 C 192.070312 93.339844 193.484375 84.148438 193.484375 84.148438 C 193.484375 84.148438 192.070312 70.710938 193.484375 67.527344 C 194.898438 64.34375 198.082031 49.140625 200.558594 44.1875 C 203.035156 39.238281 216.117188 32.875 216.117188 32.875 C 216.117188 32.875 230.058594 40.277344 246.125 72.832031" fill="#d89b86"/></g><g id="change3_2"><path d="M 421.5625 106.363281 C 421.5625 106.363281 417.671875 88.390625 409.890625 88.746094 C 402.113281 89.097656 370.640625 86.621094 321.492188 92.28125 C 297.875 95.566406 264.21875 107.949219 264.21875 107.949219 C 264.21875 107.949219 255.246094 111.148438 252.546875 113.253906 C 249.851562 115.359375 246.527344 120.566406 246.527344 121.984375 C 246.527344 123.398438 245.816406 129.054688 246.527344 130.46875 C 241.929688 134.714844 244.050781 141.433594 244.050781 141.433594 C 244.050781 141.433594 242.636719 159.46875 251.828125 161.234375 C 261.023438 163.003906 284.007812 163.003906 287.191406 158.050781 C 290.375 153.101562 307.34375 144.261719 308.054688 138.957031 C 308.761719 133.652344 319.730469 129.054688 323.96875 128.703125 C 328.207031 128.347656 361.804688 126.707031 363.570312 125.40625 C 365.335938 124.105469 397.160156 102.769531 421.5625 106.363281" fill="#d89b86"/></g><g id="change3_3"><path d="M 172.625 259.886719 C 177.21875 247.511719 172.625 222.757812 172.625 222.757812 C 172.625 222.757812 141.507812 176.433594 114.632812 159.464844 C 87.757812 142.492188 71.84375 127.285156 61.589844 122.6875 C 51.335938 118.09375 29.414062 135.773438 27.644531 148.503906 C 25.875 161.230469 36.128906 171.488281 36.128906 171.488281 C 36.128906 171.488281 85.636719 177.5 102.960938 185.277344 C 120.289062 193.054688 118.167969 200.480469 121.703125 207.90625 C 125.238281 215.335938 138.675781 242.5625 138.675781 242.5625 C 138.675781 242.5625 138.675781 246.804688 140.800781 248.21875 C 131.957031 247.863281 131.25 251.753906 131.25 251.753906 L 132.664062 254.9375 C 132.664062 254.9375 128.257812 257.058594 128.339844 259.886719 C 128.421875 262.714844 142.566406 268.019531 142.566406 268.019531 C 142.566406 268.019531 138.675781 272.261719 141.152344 274.03125 C 143.628906 275.800781 172.625 259.886719 172.625 259.886719" fill="#d89b86"/></g><g id="change4_1"><path d="M 157.0625 64.695312 C 157.0625 64.695312 166.257812 63.636719 170.5 69.648438 C 174.746094 75.65625 178.632812 94.75 179.695312 98.640625 C 180.757812 102.53125 177.925781 115.96875 177.925781 115.96875 C 177.925781 115.96875 176.867188 120.210938 178.28125 126.578125 C 179.695312 132.941406 171.207031 154.511719 163.78125 167.242188 C 159.1875 182.445312 141.507812 176.433594 141.507812 176.433594 C 141.507812 176.433594 124.53125 152.390625 129.128906 107.480469 C 133.726562 62.574219 157.0625 64.695312 157.0625 64.695312" fill="#875a53"/></g><g clip-path="url(#d)" id="change4_5"><path d="M 89.316406 271.203125 C 84.109375 278.5625 67.25 329.210938 67.25 329.210938 L 1.125 329.210938 C 1.125 329.210938 28 256.707031 29.765625 250.695312 C 31.535156 244.683594 32.242188 229.128906 40.375 216.75 C 48.507812 204.375 71.140625 176.789062 97.660156 185.632812 C 97.660156 185.632812 135.414062 206.089844 89.316406 271.203125" fill="#875a53"/></g><g id="change4_2"><path d="M 287.542969 13.425781 C 287.542969 13.425781 270.21875 20.5 268.097656 26.511719 C 265.972656 32.519531 259.253906 42.777344 259.960938 48.785156 C 260.671875 54.796875 253.902344 61.484375 253.953125 70.710938 C 254 79.9375 258.519531 101.863281 264.914062 105.363281 C 272.136719 109.320312 301.335938 97.230469 301.335938 97.230469 C 301.335938 97.230469 324.320312 80.964844 323.964844 69.648438 C 323.613281 58.335938 313.710938 48.078125 312.652344 36.058594 C 311.589844 24.035156 297.652344 8.476562 287.542969 13.425781" fill="#875a53"/></g><g id="change4_3"><path d="M 315.832031 262.011719 C 315.832031 262.011719 328.917969 242.5625 344.476562 231.957031 C 324.671875 214.980469 308.40625 198.007812 308.40625 198.007812 C 308.40625 198.007812 305.222656 195.535156 304.871094 188.460938 C 304.515625 181.390625 296.03125 170.429688 296.03125 170.429688 C 296.03125 170.429688 287.542969 160.878906 286.484375 155.578125 C 285.421875 150.273438 281.53125 141.433594 281.53125 141.433594 C 281.53125 141.433594 271.984375 130.117188 269.863281 130.117188 C 267.742188 130.117188 260.667969 132.238281 261.378906 133.652344 C 262.085938 135.066406 267.742188 140.726562 268.800781 143.90625 C 269.863281 147.089844 271.632812 158.40625 271.632812 158.40625 C 271.632812 158.40625 272.351562 162.175781 270.226562 162.234375 C 268.101562 162.292969 261.328125 153.101562 261.328125 153.101562 C 261.328125 153.101562 246.171875 141.078125 244.050781 141.433594 C 241.929688 141.785156 238.394531 145.675781 240.515625 150.625 C 242.636719 155.578125 249.355469 162.308594 249.355469 162.308594 C 249.355469 162.308594 248.066406 161.617188 245.175781 162.308594 C 242.28125 163.003906 236.625 168.660156 245.113281 175.023438 C 238.394531 177.144531 243.5625 183.867188 243.5625 183.867188 C 243.5625 183.867188 255.71875 196.59375 257.839844 201.898438 C 259.960938 207.203125 273.398438 219.933594 280.824219 221.347656 C 288.25 222.761719 315.832031 262.011719 315.832031 262.011719" fill="#875a53"/></g><g id="change4_4"><path d="M 363.570312 125.40625 C 363.570312 125.40625 346.464844 146.855469 334.300781 152.089844 C 337.136719 139.820312 334.300781 128.066406 334.300781 128.066406 L 363.570312 125.40625" fill="#875a53"/></g><g id="change5_1"><path d="M 380.367188 324.421875 C 378.835938 323.839844 377.320312 323.183594 375.886719 322.378906 C 374.4375 321.605469 373.023438 320.757812 371.636719 319.875 C 370.242188 319.007812 368.890625 318.066406 367.550781 317.117188 C 366.21875 316.15625 364.886719 315.1875 363.59375 314.179688 C 361.003906 312.160156 358.441406 310.101562 355.957031 307.957031 C 353.472656 305.816406 351.003906 303.65625 348.597656 301.425781 C 346.195312 299.195312 343.789062 296.96875 341.453125 294.671875 C 339.109375 292.375 336.773438 290.078125 334.484375 287.734375 C 332.199219 285.386719 329.914062 283.035156 327.683594 280.636719 C 325.464844 278.25 323.253906 275.859375 321.101562 273.40625 C 318.777344 271.777344 316.484375 270.097656 314.183594 268.433594 L 314.011719 268.3125 L 314.0625 268.128906 C 314.632812 266.085938 315.21875 264.046875 315.832031 262.011719 C 315.464844 264.03125 315.066406 266.046875 314.65625 268.058594 C 317.046875 269.527344 319.445312 270.984375 321.8125 272.488281 L 321.855469 272.511719 L 321.917969 272.574219 L 328.839844 279.515625 L 335.808594 286.410156 C 338.148438 288.691406 340.46875 290.988281 342.828125 293.246094 C 345.191406 295.5 347.535156 297.773438 349.921875 300 C 352.308594 302.226562 354.695312 304.453125 357.117188 306.636719 L 360.773438 309.886719 C 361.992188 310.972656 363.234375 312.027344 364.480469 313.082031 C 365.730469 314.128906 366.976562 315.175781 368.25 316.195312 C 369.527344 317.207031 370.808594 318.214844 372.113281 319.1875 C 373.414062 320.164062 374.746094 321.109375 376.121094 321.984375 C 377.488281 322.875 378.902344 323.683594 380.367188 324.421875 M 321.167969 273.453125 L 321.167969 273.453125" fill="#b67186"/></g><g id="change5_2"><path d="M 413.277344 282.515625 C 413.277344 282.515625 413.140625 282.203125 412.878906 281.617188 C 412.71875 281.339844 412.527344 280.992188 412.285156 280.597656 C 412.011719 280.21875 411.746094 279.761719 411.375 279.289062 C 410.679688 278.320312 409.734375 277.214844 408.625 275.976562 C 407.492188 274.757812 406.179688 273.410156 404.71875 271.976562 C 401.78125 269.113281 398.226562 265.910156 394.308594 262.601562 C 392.355469 260.945312 390.285156 259.292969 388.1875 257.609375 C 386.082031 255.933594 383.90625 254.285156 381.691406 252.6875 C 379.492188 251.078125 377.25 249.523438 374.988281 248.105469 C 372.738281 246.714844 370.421875 245.328125 368.195312 244.503906 C 367.9375 244.386719 367.617188 244.304688 367.308594 244.21875 L 366.890625 244.097656 L 366.410156 243.980469 C 365.765625 243.824219 365.140625 243.625 364.535156 243.394531 C 363.324219 242.941406 362.1875 242.371094 361.144531 241.734375 C 359.046875 240.464844 357.351562 238.902344 355.902344 237.414062 C 354.4375 235.933594 353.242188 234.460938 352.03125 233.378906 C 351.433594 232.839844 350.800781 232.410156 350.179688 232.261719 C 349.949219 232.21875 349.703125 232.203125 349.460938 232.203125 C 349.269531 232.203125 349.074219 232.214844 348.886719 232.222656 C 348.699219 232.230469 348.515625 232.238281 348.339844 232.238281 C 348.308594 232.238281 348.277344 232.234375 348.25 232.234375 C 348.011719 232.246094 347.785156 232.253906 347.566406 232.253906 C 346.679688 232.253906 345.964844 232.167969 345.449219 232.125 C 344.808594 232.042969 344.480469 231.957031 344.476562 231.957031 C 344.480469 231.957031 344.824219 232.007812 345.457031 232.019531 C 346.101562 232.007812 347.039062 231.996094 348.230469 231.847656 C 348.527344 231.816406 348.839844 231.785156 349.167969 231.75 C 349.339844 231.734375 349.476562 231.710938 349.691406 231.703125 C 349.757812 231.695312 349.828125 231.691406 349.902344 231.691406 C 350.015625 231.691406 350.136719 231.699219 350.269531 231.71875 C 351.082031 231.84375 351.8125 232.289062 352.496094 232.804688 C 353.875 233.851562 355.1875 235.21875 356.695312 236.589844 C 358.199219 237.960938 359.90625 239.34375 361.894531 240.449219 C 362.890625 241 363.957031 241.476562 365.082031 241.84375 C 365.640625 242.03125 366.21875 242.1875 366.808594 242.320312 L 367.25 242.417969 L 367.753906 242.546875 C 368.0625 242.625 368.367188 242.691406 368.707031 242.824219 C 371.335938 243.738281 373.652344 245.035156 376.003906 246.464844 C 378.335938 247.898438 380.621094 249.457031 382.867188 251.070312 C 384.929688 252.582031 386.953125 254.140625 388.914062 255.71875 C 389.132812 256.707031 389.261719 257.230469 389.261719 257.230469 C 389.261719 257.230469 389.179688 256.742188 389.035156 255.8125 C 389.152344 255.910156 389.273438 256.007812 389.394531 256.101562 C 391.511719 257.800781 393.527344 259.5625 395.464844 261.269531 C 399.140625 264.554688 402.441406 267.789062 405.152344 270.746094 C 405.132812 270.746094 405.113281 270.746094 405.09375 270.746094 C 404.601562 270.746094 404.332031 270.753906 404.332031 270.753906 C 404.332031 270.753906 404.746094 270.882812 405.464844 271.085938 C 405.492188 271.117188 405.519531 271.148438 405.546875 271.179688 C 406.949219 272.703125 408.15625 274.171875 409.195312 275.496094 C 410.214844 276.839844 411.074219 278.03125 411.699219 279.070312 C 412.351562 280.09375 412.730469 280.976562 412.980469 281.570312 C 413.171875 282.1875 413.277344 282.515625 413.277344 282.515625 M 344.476562 231.957031 L 344.476562 231.957031" fill="#b67186"/></g><g id="change5_3"><path d="M 428.632812 289.941406 C 428.632812 289.941406 428.316406 289.546875 427.765625 288.855469 C 427.488281 288.515625 427.152344 288.101562 426.765625 287.625 C 426.375 287.15625 425.9375 286.628906 425.460938 286.050781 C 424.472656 284.921875 423.355469 283.597656 422.074219 282.257812 C 421.757812 281.921875 421.441406 281.570312 421.109375 281.234375 C 420.765625 280.90625 420.421875 280.570312 420.082031 280.222656 C 419.421875 279.515625 418.660156 278.898438 417.945312 278.226562 C 417.21875 277.574219 416.453125 276.96875 415.710938 276.359375 C 414.914062 275.832031 414.195312 275.203125 413.421875 274.726562 C 412.628906 274.28125 411.921875 273.730469 411.167969 273.371094 C 410.414062 273.019531 409.726562 272.597656 409.050781 272.316406 C 408.363281 272.066406 407.738281 271.808594 407.175781 271.582031 C 406.609375 271.363281 406.089844 271.277344 405.671875 271.144531 C 405.601562 271.125 405.53125 271.105469 405.464844 271.085938 C 404.746094 270.882812 404.332031 270.753906 404.332031 270.753906 C 404.332031 270.753906 404.601562 270.746094 405.09375 270.746094 C 405.113281 270.746094 405.132812 270.746094 405.152344 270.746094 C 405.320312 270.746094 405.511719 270.746094 405.726562 270.75 C 406.171875 270.777344 406.734375 270.722656 407.347656 270.835938 C 407.960938 270.941406 408.660156 271.066406 409.421875 271.230469 C 410.179688 271.40625 410.957031 271.722656 411.800781 272.015625 C 412.648438 272.3125 413.460938 272.78125 414.332031 273.21875 C 415.183594 273.683594 416.015625 274.242188 416.863281 274.808594 C 417.664062 275.433594 418.492188 276.058594 419.269531 276.730469 C 420.003906 277.449219 420.789062 278.121094 421.460938 278.875 C 422.167969 279.597656 422.804688 280.355469 423.402344 281.105469 C 424.027344 281.835938 424.542969 282.605469 425.050781 283.316406 C 425.566406 284.027344 425.984375 284.742188 426.390625 285.386719 C 427.960938 288.011719 428.632812 289.941406 428.632812 289.941406" fill="#b67186"/></g><g id="change5_4"><path d="M 389.261719 257.230469 C 389.261719 257.230469 389.132812 256.707031 388.914062 255.71875 C 388.675781 254.609375 388.320312 252.917969 387.910156 250.722656 C 387.527344 248.644531 387.078125 246.113281 386.628906 243.199219 C 386.171875 240.289062 385.695312 236.992188 385.3125 233.382812 C 384.902344 229.773438 384.554688 225.855469 384.265625 221.703125 C 384.113281 219.628906 384.035156 217.488281 383.914062 215.304688 C 383.839844 213.117188 383.804688 210.882812 383.789062 208.609375 C 383.824219 204.0625 383.921875 199.359375 384.324219 194.589844 C 384.425781 193.378906 384.496094 192.242188 384.625 190.960938 L 384.886719 189.183594 C 384.964844 188.589844 385.054688 187.996094 385.214844 187.382812 C 385.503906 186.164062 385.757812 184.929688 386.167969 183.769531 L 386.730469 182.007812 L 387.40625 180.289062 C 389.273438 175.726562 391.769531 171.476562 394.503906 167.53125 C 397.25 163.585938 400.25 159.9375 403.304688 156.554688 C 406.347656 153.164062 409.5 150.085938 412.5625 147.261719 C 415.625 144.4375 418.609375 141.863281 421.417969 139.558594 C 427.03125 134.949219 431.976562 131.453125 435.453125 129.046875 C 438.945312 126.648438 441.015625 125.40625 441.015625 125.40625 C 441.015625 125.40625 439.039062 126.796875 435.683594 129.359375 C 432.304688 131.898438 427.613281 135.695312 422.144531 140.421875 C 416.683594 145.152344 410.585938 150.992188 404.597656 157.710938 C 401.613281 161.078125 398.691406 164.703125 396.042969 168.589844 C 393.398438 172.476562 391.019531 176.640625 389.261719 181.035156 L 388.59375 182.679688 L 388.042969 184.363281 C 387.632812 185.480469 387.398438 186.605469 387.117188 187.726562 C 386.957031 188.277344 386.863281 188.867188 386.777344 189.464844 L 386.503906 191.242188 C 386.382812 192.34375 386.289062 193.585938 386.179688 194.742188 C 385.738281 199.449219 385.601562 204.109375 385.523438 208.617188 C 385.53125 210.871094 385.539062 213.089844 385.546875 215.261719 C 385.605469 217.433594 385.621094 219.558594 385.714844 221.625 C 385.886719 225.761719 386.121094 229.671875 386.429688 233.273438 C 386.570312 235.078125 386.738281 236.800781 386.898438 238.441406 C 387.039062 240.085938 387.203125 241.640625 387.363281 243.101562 C 387.675781 246.027344 388.007812 248.570312 388.289062 250.660156 C 388.601562 252.949219 388.863281 254.695312 389.035156 255.8125 C 389.179688 256.742188 389.261719 257.230469 389.261719 257.230469" fill="#b67186"/></g><g id="change5_5"><path d="M 383.019531 188.652344 C 383.019531 188.652344 382.78125 187.859375 382.371094 186.46875 C 382.152344 185.773438 381.992188 184.910156 381.773438 183.921875 C 381.546875 182.929688 381.40625 181.792969 381.230469 180.554688 C 381.113281 179.308594 380.96875 177.957031 380.972656 176.519531 C 380.9375 175.796875 380.957031 175.058594 380.984375 174.304688 C 380.988281 173.546875 381.050781 172.773438 381.132812 171.992188 C 381.195312 171.207031 381.285156 170.414062 381.414062 169.613281 C 381.472656 169.210938 381.53125 168.808594 381.589844 168.402344 C 381.675781 168 381.757812 167.597656 381.84375 167.191406 C 382.171875 165.570312 382.628906 163.949219 383.132812 162.347656 C 383.683594 160.757812 384.292969 159.191406 384.988281 157.691406 C 385.65625 156.179688 386.464844 154.765625 387.25 153.40625 C 388.863281 150.710938 390.636719 148.371094 392.292969 146.503906 C 393.949219 144.628906 395.476562 143.214844 396.59375 142.285156 C 397.707031 141.351562 398.402344 140.898438 398.402344 140.898438 C 398.402344 140.898438 396.050781 143.246094 393.1875 147.214844 C 392.476562 148.214844 391.730469 149.304688 390.984375 150.488281 C 390.230469 151.660156 389.515625 152.945312 388.777344 154.273438 C 388.066406 155.613281 387.382812 157.023438 386.75 158.480469 C 386.101562 159.933594 385.535156 161.445312 385.03125 162.976562 C 384.527344 164.507812 384.066406 166.054688 383.730469 167.605469 C 383.550781 168.378906 383.382812 169.148438 383.25 169.917969 C 383.09375 170.679688 382.972656 171.441406 382.882812 172.191406 C 382.832031 172.566406 382.78125 172.9375 382.730469 173.308594 C 382.695312 173.679688 382.660156 174.046875 382.628906 174.410156 C 382.550781 175.136719 382.480469 175.847656 382.464844 176.546875 C 382.375 177.9375 382.390625 179.253906 382.375 180.476562 C 382.441406 181.695312 382.433594 182.824219 382.53125 183.816406 C 382.632812 184.808594 382.652344 185.6875 382.761719 186.394531 C 382.925781 187.832031 383.019531 188.652344 383.019531 188.652344" fill="#b67186"/></g><g id="change5_6"><path d="M 378.875 204.015625 C 378.875 204.015625 378.539062 202.726562 378.09375 200.4375 C 377.667969 198.148438 377.0625 194.867188 376.578125 190.894531 C 376.335938 188.910156 376.09375 186.753906 375.921875 184.464844 C 375.738281 182.179688 375.578125 179.761719 375.511719 177.257812 C 375.433594 174.753906 375.390625 172.164062 375.460938 169.53125 C 375.539062 166.898438 375.644531 164.222656 375.875 161.554688 C 376.09375 158.882812 376.4375 156.222656 376.832031 153.613281 C 377.015625 152.308594 377.28125 151.023438 377.515625 149.75 C 377.796875 148.488281 378.074219 147.238281 378.34375 146.011719 C 378.675781 144.796875 378.960938 143.589844 379.308594 142.429688 C 379.683594 141.277344 380.019531 140.140625 380.402344 139.050781 C 380.808594 137.972656 381.171875 136.910156 381.582031 135.902344 C 382.015625 134.910156 382.433594 133.949219 382.835938 133.023438 C 383.289062 132.128906 383.722656 131.265625 384.136719 130.445312 C 384.554688 129.628906 385.035156 128.902344 385.441406 128.195312 C 385.847656 127.488281 386.25 126.839844 386.664062 126.265625 C 387.0625 125.683594 387.429688 125.148438 387.757812 124.667969 C 388.4375 123.71875 389.0625 123.035156 389.445312 122.542969 C 389.839844 122.0625 390.046875 121.804688 390.046875 121.804688 C 390.046875 121.804688 389.867188 122.085938 389.53125 122.609375 C 389.199219 123.136719 388.6875 123.894531 388.082031 124.882812 C 387.796875 125.386719 387.480469 125.945312 387.136719 126.550781 C 386.777344 127.148438 386.433594 127.820312 386.09375 128.550781 C 385.355469 129.984375 384.664062 131.664062 383.890625 133.480469 C 383.550781 134.40625 383.199219 135.375 382.832031 136.375 C 382.507812 137.386719 382.167969 138.433594 381.820312 139.511719 C 381.496094 140.59375 381.214844 141.726562 380.898438 142.867188 C 380.625 144.023438 380.347656 145.203125 380.0625 146.40625 C 379.828125 147.617188 379.585938 148.847656 379.34375 150.097656 C 379.15625 151.355469 378.917969 152.617188 378.742188 153.902344 C 378.375 156.472656 378.0625 159.089844 377.867188 161.722656 C 377.617188 164.347656 377.488281 166.988281 377.386719 169.585938 C 377.3125 172.183594 377.242188 174.746094 377.265625 177.226562 C 377.289062 179.703125 377.320312 182.105469 377.40625 184.378906 C 377.492188 186.652344 377.597656 188.804688 377.714844 190.789062 C 377.972656 194.757812 378.222656 198.070312 378.476562 200.382812 C 378.714844 202.695312 378.875 204.015625 378.875 204.015625" fill="#b67186"/></g><g clip-path="url(#e)" id="change5_7"><path d="M 256.359375 329.207031 C 256.359375 329.207031 257.179688 326.628906 258.75 322.902344 C 259.527344 321.035156 260.492188 318.882812 261.597656 316.609375 C 262.15625 315.480469 262.71875 314.296875 263.34375 313.128906 C 263.976562 311.960938 264.617188 310.773438 265.257812 309.585938 C 265.929688 308.414062 266.617188 307.25 267.308594 306.113281 C 267.988281 304.96875 268.726562 303.882812 269.429688 302.828125 C 270.851562 300.726562 272.300781 298.832031 273.671875 297.3125 C 274.351562 296.546875 275.023438 295.886719 275.640625 295.324219 C 275.960938 295.054688 276.261719 294.804688 276.539062 294.574219 C 276.835938 294.363281 277.109375 294.171875 277.355469 294 C 277.875 293.691406 278.289062 293.464844 278.601562 293.375 C 278.898438 293.273438 279.058594 293.214844 279.058594 293.214844 C 279.058594 293.214844 278.914062 293.304688 278.648438 293.472656 C 278.371094 293.617188 278.035156 293.941406 277.601562 294.316406 C 277.179688 294.714844 276.710938 295.238281 276.191406 295.851562 C 275.6875 296.484375 275.144531 297.214844 274.570312 298.027344 C 273.433594 299.660156 272.199219 301.632812 270.914062 303.777344 C 270.265625 304.84375 269.636719 305.972656 268.96875 307.101562 C 268.300781 308.234375 267.648438 309.398438 267 310.566406 C 265.691406 312.902344 264.382812 315.234375 263.152344 317.421875 C 261.929688 319.613281 260.78125 321.660156 259.777344 323.40625 C 257.785156 326.910156 256.359375 329.207031 256.359375 329.207031" fill="#b67186"/></g></g></svg>